<?xml version="1.0" encoding="UTF-8"?>
<svg width="350px" height="350px" viewBox="0 0 350 350" version="1.1" xmlns="http://www.w3.org/2000/svg" xmlns:xlink="http://www.w3.org/1999/xlink">
    <title>Logo</title>
    <g id="Logo" stroke="none" stroke-width="1" fill="none" fill-rule="evenodd">
        <g id="Jack-Skull" transform="translate(14.000000, 0.000000)" fill="#000000">
            <path d="M242.0537,168.8251 C211.3057,174.3831 213.1577,147.1581 214.2697,134.0051 C214.2697,134.0051 217.2337,100.8461 235.3857,98.6231 C254.2927,96.3081 261.5027,128.6301 261.5027,128.6301 C261.5027,128.6301 272.8017,163.2671 242.0537,168.8251 M308.7397,255.5141 C284.2887,214.3931 297.9957,184.5181 297.9957,184.5181 C297.2557,183.9081 281.6957,185.4971 281.6957,185.4971 C270.5787,184.5181 272.6187,171.4201 272.6187,171.4201 C273.7287,164.8451 284.4657,146.6571 289.4667,139.0181 C297.0807,127.3871 293.4667,121.5181 293.4667,121.5181 C281.8807,107.3301 277.4667,79.5181 278.4667,75.0181 C279.4667,70.5181 274.9667,64.0181 274.9667,64.0181 C162.4667,108.5181 75.4667,202.5181 75.4667,202.5181 C102.6307,225.4651 125.7317,212.7271 125.7317,212.7271 C203.3447,178.2751 200.0087,253.4781 207.7887,259.2191 C215.5697,264.9601 227.9787,263.8501 227.9787,263.8501 C230.2007,256.8111 233.3507,252.3661 233.3507,252.3661 C233.3507,261.2561 235.2027,264.4061 235.2027,264.4061 C240.9457,266.2571 251.1327,263.8501 251.1327,263.8501 C252.4147,259.9111 252.7997,254.9591 252.7997,254.9591 C255.5777,253.1071 257.9867,247.3651 257.9867,247.3651 C260.7647,256.6261 260.5787,261.6271 260.5787,261.6271 C267.6167,264.5911 275.5827,261.6271 275.5827,261.6271 C276.8797,256.9961 279.2867,253.8481 279.2867,253.8481 C283.1767,271.4451 293.2897,264.3241 298.7367,263.8501 C310.0657,262.8641 308.7397,255.5141 308.7397,255.5141" id="Fill-1"></path>
            <path d="M2.84217094e-14,87.329 L95.733,0 C95.733,0 8.95,12.289 2.84217094e-14,87.329" id="Fill-3"></path>
            <path d="M3.4668,141.518 C3.4668,141.518 70.9668,69.018 183.4668,5.518 C183.4668,5.518 217.4668,5.518 238.9668,25.018 C238.9668,25.018 86.4668,117.518 24.4668,184.518 C24.4668,184.518 13.3568,175.324 3.4668,141.518" id="Fill-5"></path>
            <path d="M199.8545,297.5229 C199.8545,297.5229 188.8545,287.7989 197.0415,277.5659 C197.0415,277.5659 201.6455,277.0549 205.9955,271.9379 C205.9955,271.9379 210.6015,269.3799 227.9995,273.9849 C227.9995,273.9849 228.7665,283.7669 229.5345,284.3769 C229.5345,284.3769 234.6515,275.1259 233.3725,271.2289 C233.3725,271.2289 243.0935,270.6589 247.9555,272.4499 C247.9555,272.4499 247.2265,278.5529 251.0255,282.6829 C252.0885,283.8389 253.0725,290.1029 253.0725,290.1029 C253.0725,290.1029 260.1555,278.6749 259.0995,273.1529 C259.0995,273.1529 263.1805,271.1489 272.7355,271.1429 C274.4635,271.1419 276.5285,281.9379 276.5285,281.9379 C276.5285,281.9379 279.0685,274.5309 285.3185,272.0479 C287.9785,270.9919 303.8025,267.3429 308.0765,269.9349 C308.0765,269.9349 309.7845,299.6799 311.0915,309.5179 C311.7695,314.6169 313.6465,316.7219 320.0915,328.0179 C322.8725,332.8909 322.7165,348.6429 314.0915,349.6429 C305.3955,350.6509 290.4385,347.3589 279.2165,346.5179 C262.9555,345.2999 245.8805,340.7359 215.5915,332.1429 C203.9225,328.8329 187.1335,329.6869 167.0915,333.5179 C159.3695,334.9949 142.3755,338.5989 136.2165,339.5179 C126.9585,340.8999 101.5615,343.5059 115.2165,308.5179 C122.2195,290.5769 125.7345,271.1789 125.6335,232.1849 C125.6205,227.0559 129.8005,218.6859 139.7995,217.3519 C146.7525,216.4229 150.5175,218.6389 167.4665,212.6849 C171.0285,211.4339 180.2995,213.1859 176.6335,224.6849 C170.8285,242.8939 158.1335,292.5179 199.8545,297.5229" id="Fill-7"></path>
        </g>
    </g>
</svg>